<svg xmlns="http://www.w3.org/2000/svg" width="128" height="128" viewBox="0 0 128 128" fill="none">
  <defs>
    <linearGradient id="g1" x1="24" y1="16" x2="112" y2="112" gradientUnits="userSpaceOnUse">
      <stop stop-color="#4F46E5"/>
      <stop offset="1" stop-color="#22C55E"/>
    </linearGradient>
    <linearGradient id="g2" x1="20" y1="24" x2="110" y2="110" gradientUnits="userSpaceOnUse">
      <stop stop-color="#0F172A" stop-opacity="0.15"/>
      <stop offset="1" stop-color="#0F172A" stop-opacity="0"/>
    </linearGradient>
  </defs>
  <!-- Soft shield -->
  <path d="M64 10C85.2 20.7 102.3 20.7 114 24V66.5C114 92.5 94.4 110 64 118C33.6 110 14 92.5 14 66.5V24C25.7 20.7 42.8 20.7 64 10Z" fill="url(#g2)"/>
  <!-- Warehouse box -->
  <path d="M28 52L64 32L100 52V96H28V52Z" fill="none" stroke="url(#g1)" stroke-width="6" stroke-linejoin="round"/>
  <path d="M42 60H86" stroke="#4F46E5" stroke-width="5" stroke-linecap="round"/>
  <path d="M50 96V74H78V96" stroke="#22C55E" stroke-width="5" stroke-linejoin="round"/>
  <!-- Check mark -->
  <path d="M54 72L61 79L74 64" stroke="url(#g1)" stroke-width="6" stroke-linecap="round" stroke-linejoin="round"/>
</svg>

